<svg height="64px" id="Image" style="enable-background:new 0 0 64 64;" version="1.1" viewBox="0 0 64 64" width="64px" xml:space="preserve" xmlns="http://www.w3.org/2000/svg" xmlns:xlink="http://www.w3.org/1999/xlink"><g><path d="M48,29c-3.594,0-6.778,1.33-8.78,3.907C42.946,35.146,45,39.082,45,44   c0,0.196-0.015,0.488-0.081,0.816c0.055,0.007,0.106,0.017,0.161,0.023C46.01,44.95,46.99,45,48,45c6.08,0,11-2,11-5   C59,32.82,54.08,29,48,29z" style="fill:#fe7b21;"/><path d="M38.16,34.6C36.41,33.54,34.28,33,32,33s-4.41,0.54-6.16,1.6C22.92,36.34,21,39.52,21,44   c0,0.16,0.01,0.32,0.05,0.48C21.54,47.21,26.25,49,32,49s10.46-1.79,10.95-4.52C42.99,44.32,43,44.16,43,44   C43,39.52,41.08,36.34,38.16,34.6z" style="fill:#fe7b21;"/><path d="M24.78,32.905c-0.004-0.005-0.007-0.011-0.011-0.016C22.76,30.33,19.58,29,16,29   C9.92,29,5,32.82,5,40c0,3,4.92,5,11,5c1.04,0,2.05-0.06,3-0.17c0.027-0.004,0.054-0.008,0.081-0.012   C19.015,44.489,19,44.197,19,44C19,39.076,21.058,35.136,24.78,32.905z" style="fill:#fe7b21;"/><path d="M54,22c0-3.87-2.69-7-6-7s-6,3.13-6,7s2.69,7,6,7S54,25.87,54,22z" style="fill:#fe7b21;"/><path d="M22,22c0-3.87-2.69-7-6-7s-6,3.13-6,7s2.69,7,6,7S22,25.87,22,22z" style="fill:#fe7b21;"/><path d="M38,26c0-3.87-2.69-7-6-7s-6,3.13-6,7c0,2.212,0.881,4.18,2.253,5.462C29.28,32.423,30.582,33,32,33   s2.72-0.578,3.748-1.539C37.119,30.179,38,28.212,38,26z" style="fill:#fe7b21;"/></g></svg>