<svg height="64px" id="Image" style="enable-background:new 0 0 64 64;" version="1.1" viewBox="0 0 64 64" width="64px" xml:space="preserve" xmlns="http://www.w3.org/2000/svg" xmlns:xlink="http://www.w3.org/1999/xlink"><g><path d="M49,32c0-9.39-7.61-17-17-17s-17,7.61-17,17s7.61,17,17,17S49,41.39,49,32z M32,31   c3.309,0,6,2.243,6,5c0,2.472-2.167,4.526-5,4.925V43c0,0.552-0.447,1-1,1s-1-0.448-1-1v-2.075c-2.833-0.399-5-2.453-5-4.925   c0-0.552,0.447-1,1-1s1,0.448,1,1c0,1.654,1.794,3,4,3s4-1.346,4-3s-1.794-3-4-3c-3.309,0-6-2.243-6-5c0-2.472,2.167-4.526,5-4.925   V21c0-0.552,0.447-1,1-1s1,0.448,1,1v2.075c2.833,0.399,5,2.453,5,4.925c0,0.552-0.447,1-1,1s-1-0.448-1-1c0-1.654-1.794-3-4-3   s-4,1.346-4,3S29.794,31,32,31z" style="fill:#63d044;"/><path d="M33,11V5c0-0.552-0.447-1-1-1s-1,0.448-1,1v6c0,0.552,0.447,1,1,1S33,11.552,33,11z" style="fill:#63d044;"/><path d="M33,59v-6c0-0.552-0.447-1-1-1s-1,0.448-1,1v6c0,0.552,0.447,1,1,1S33,59.552,33,59z" style="fill:#63d044;"/><path d="M21.501,14.81c0.17,0,0.342-0.043,0.499-0.134c0.479-0.276,0.643-0.888,0.366-1.366l-3-5.19   C19.089,7.642,18.476,7.477,18,7.754c-0.479,0.276-0.643,0.888-0.366,1.366l3,5.19C20.819,14.631,21.155,14.81,21.501,14.81z" style="fill:#63d044;"/><path d="M42,49.324c-0.479,0.276-0.643,0.888-0.366,1.366l3,5.19c0.186,0.32,0.521,0.5,0.867,0.5   c0.17,0,0.342-0.043,0.499-0.134c0.479-0.276,0.643-0.888,0.366-1.366l-3-5.19C43.09,49.211,42.477,49.046,42,49.324z" style="fill:#63d044;"/><path d="M8.12,19.366l5.189,3c0.157,0.091,0.329,0.134,0.499,0.134c0.346,0,0.682-0.179,0.867-0.5   c0.276-0.478,0.112-1.09-0.366-1.366l-5.189-3C8.642,17.356,8.03,17.521,7.754,18S7.642,19.089,8.12,19.366z" style="fill:#63d044;"/><path d="M49.324,42c-0.276,0.478-0.112,1.09,0.366,1.366l5.189,3c0.157,0.091,0.329,0.134,0.499,0.134   c0.346,0,0.682-0.179,0.867-0.5c0.276-0.478,0.112-1.09-0.366-1.366l-5.189-3C50.212,41.356,49.601,41.521,49.324,42z" style="fill:#63d044;"/><path d="M5,33h6c0.553,0,1-0.448,1-1s-0.447-1-1-1H5c-0.553,0-1,0.448-1,1S4.447,33,5,33z" style="fill:#63d044;"/><path d="M59,31h-6c-0.553,0-1,0.448-1,1s0.447,1,1,1h6c0.553,0,1-0.448,1-1S59.553,31,59,31z" style="fill:#63d044;"/><path d="M14.676,42c-0.277-0.478-0.89-0.643-1.366-0.365l-5.189,3C7.642,44.911,7.478,45.522,7.754,46   c0.186,0.32,0.521,0.5,0.867,0.5c0.17,0,0.342-0.043,0.499-0.134l5.189-3C14.788,43.089,14.952,42.478,14.676,42z" style="fill:#63d044;"/><path d="M49.324,22c0.186,0.32,0.521,0.5,0.867,0.5c0.17,0,0.342-0.043,0.499-0.134l5.189-3   c0.479-0.276,0.643-0.888,0.366-1.366c-0.277-0.478-0.89-0.643-1.366-0.365l-5.189,3C49.212,20.911,49.048,21.522,49.324,22z" style="fill:#63d044;"/><path d="M22,49.324c-0.478-0.278-1.09-0.113-1.366,0.365l-3,5.19c-0.276,0.478-0.112,1.09,0.366,1.366   c0.157,0.091,0.329,0.134,0.499,0.134c0.346,0,0.682-0.179,0.867-0.5l3-5.19C22.643,50.212,22.479,49.601,22,49.324z" style="fill:#63d044;"/><path d="M42.499,14.81c0.346,0,0.682-0.179,0.867-0.5l3-5.19c0.276-0.478,0.112-1.09-0.366-1.366   c-0.478-0.278-1.09-0.113-1.366,0.365l-3,5.19c-0.276,0.478-0.112,1.09,0.366,1.366C42.157,14.767,42.329,14.81,42.499,14.81z" style="fill:#63d044;"/></g></svg>